<?xml version="1.0" standalone="no"?>
<!DOCTYPE svg PUBLIC "-//W3C//DTD SVG 20010904//EN"
 "http://www.w3.org/TR/2001/REC-SVG-20010904/DTD/svg10.dtd">
<svg version="1.0" xmlns="http://www.w3.org/2000/svg"
 width="512.000000pt" height="512.000000pt" viewBox="0 0 512.000000 512.000000"
 preserveAspectRatio="xMidYMid meet">

<g transform="translate(0.000000,512.000000) scale(0.100000,-0.100000)"
fill="#000000" stroke="none">
<path d="M2415 5114 c-16 -2 -70 -9 -120 -15 -49 -5 -166 -25 -260 -44 -93
-19 -206 -39 -250 -45 -87 -13 -113 -23 -133 -52 -7 -10 -31 -27 -52 -38 -74
-38 -80 -54 -80 -214 0 -122 -3 -147 -20 -181 -19 -36 -20 -59 -20 -320 0
-261 1 -284 20 -320 18 -35 20 -59 20 -231 l0 -191 -89 -12 c-74 -10 -95 -17
-115 -38 -26 -26 -54 -98 -43 -109 3 -4 53 1 111 10 58 9 112 16 120 16 14 0
16 -83 16 -825 l0 -825 -40 -249 -40 -248 15 -174 c36 -408 82 -674 135 -778
10 -21 34 -52 54 -68 131 -116 684 -188 1171 -153 350 25 580 79 665 156 93
84 139 314 194 964 4 36 -8 139 -34 302 l-40 248 0 825 c0 742 2 825 16 825 8
0 62 -7 120 -16 58 -9 108 -14 111 -10 11 11 -17 83 -43 109 -20 21 -42 28
-115 38 l-89 13 0 191 c0 171 2 195 20 230 19 36 20 59 20 320 0 261 -1 284
-20 320 -17 34 -20 59 -20 181 0 160 -6 176 -80 214 -21 11 -45 28 -52 38 -20
29 -47 39 -138 52 -47 7 -137 23 -200 37 -205 43 -361 63 -525 68 -88 2 -173
2 -190 -1z m694 -1382 c109 -24 184 -58 226 -102 28 -29 30 -38 33 -114 5
-120 -36 -322 -120 -589 -28 -88 -33 -98 -52 -93 -72 18 -309 56 -411 67 -228
23 -574 -1 -812 -56 -36 -9 -70 -12 -74 -8 -21 23 -117 375 -144 527 -30 175
-17 240 59 294 69 50 158 74 356 96 19 2 217 3 440 1 367 -2 414 -4 499 -23z
m364 -925 l-6 -458 -111 3 -111 3 3 40 c4 60 30 198 58 310 49 197 162 571
169 563 2 -2 1 -210 -2 -461z m-1707 58 c50 -179 89 -359 100 -453 l7 -63
-114 3 -114 3 -2 455 -1 455 40 -120 c22 -66 60 -192 84 -280z m99 -692 c-39
-637 -77 -1080 -94 -1112 -8 -13 -11 -11 -21 14 -25 67 -69 324 -90 534 -5 57
-10 231 -10 387 l0 284 111 0 111 0 -7 -107z m1605 -115 c0 -266 -12 -442 -46
-678 -31 -218 -62 -346 -79 -329 -19 20 -95 942 -95 1156 l0 73 110 0 110 0 0
-222z m-1370 -883 c219 -38 421 -57 525 -50 106 8 404 49 506 70 40 9 73 14
75 12 14 -14 28 -196 28 -369 1 -237 0 -241 -90 -290 -266 -146 -915 -145
-1179 1 -80 44 -90 73 -90 266 0 88 6 213 14 278 l13 118 27 -5 c14 -3 91 -17
171 -31z"/>
<path d="M2316 3592 c-3 -5 114 -127 258 -271 176 -176 266 -259 271 -251 5 8
-81 101 -251 271 -142 143 -262 259 -266 259 -4 0 -9 -4 -12 -8z"/>
<path d="M2490 3492 c0 -14 249 -256 257 -249 7 8 -235 257 -249 257 -5 0 -8
-3 -8 -8z"/>
<path d="M2416 3423 c-8 -9 234 -253 251 -253 7 0 13 3 13 8 0 8 -242 252
-251 252 -3 0 -9 -3 -13 -7z"/>
<path d="M2572 793 c147 -147 271 -264 275 -260 9 10 -507 527 -527 527 -8 0
105 -120 252 -267z"/>
<path d="M2490 952 c0 -14 249 -256 257 -249 7 8 -235 257 -249 257 -5 0 -8
-3 -8 -8z"/>
<path d="M2420 882 c0 -14 249 -256 257 -249 7 8 -235 257 -249 257 -5 0 -8
-3 -8 -8z"/>
</g>
</svg>
